<svg width="40" height="40" viewBox="0 0 40 40" fill="none" xmlns="http://www.w3.org/2000/svg">
<path d="M31.7188 6.64062C33.1062 6.64062 34.0625 7.81641 34.0625 9.20937C34.0625 11.1359 32.1547 12.4109 29.375 14.8438C26.5953 12.4109 24.6875 11.1359 24.6875 9.20937C24.6875 7.81641 25.6437 6.64062 27.0312 6.64062C28.8125 6.64062 29.375 8.69141 29.375 8.69141C29.375 8.69141 29.9375 6.64062 31.7188 6.64062Z" fill="#9A5B6A"/>
<path d="M18.8281 0.78125C20.9094 0.78125 22.3438 2.46094 22.3438 4.45078C22.3438 7.20312 19.4828 9.025 15.3125 12.5C11.1422 9.025 8.28125 7.20312 8.28125 4.45078C8.28125 2.46094 9.71563 0.78125 11.7969 0.78125C14.4688 0.78125 15.3125 3.71094 15.3125 3.71094C15.3125 3.71094 16.1562 0.78125 18.8281 0.78125Z" fill="#9A5B6A"/>
<path d="M34.5312 20C33.7113 20 6.2882 20 5.46875 20L0.78125 27.0312H5.46875V39.2188H34.5312V27.0312H39.2188L34.5312 20Z" fill="#DACEC2"/>
<path d="M0.0924191 27.3999C0.228357 27.6539 0.493122 27.8125 0.781247 27.8125H4.6875V39.2188C4.6875 39.6502 5.03726 40 5.46875 40H34.5312C34.9627 40 35.3125 39.6502 35.3125 39.2188V27.8125H39.2187C39.5069 27.8125 39.7716 27.6539 39.9076 27.3999C40.0435 27.1459 40.0286 26.8377 39.8687 26.5979L35.1812 19.5666C35.0364 19.3493 34.7924 19.2188 34.5312 19.2188H31.5625C31.131 19.2188 30.7812 19.5685 30.7812 20C30.7812 20.4315 31.131 20.7812 31.5625 20.7812H34.1131L37.759 26.25H25.1056L21.4598 20.7812H24.5312C24.9627 20.7812 25.3125 20.4315 25.3125 20C25.3125 19.5685 24.9627 19.2188 24.5312 19.2188C23.6391 19.2188 6.33218 19.2188 5.46875 19.2188C5.2075 19.2188 4.96359 19.3493 4.81875 19.5666L0.131247 26.5979C-0.0285966 26.8377 -0.0435184 27.1459 0.0924191 27.3999ZM6.25 27.8125H15.3125C15.5737 27.8125 15.8177 27.682 15.9625 27.4646L19.2187 22.5802V38.4375H6.25V27.8125ZM24.0375 27.4646C24.1823 27.682 24.4263 27.8125 24.6875 27.8125H33.75V38.4375H20.7812V22.5802L24.0375 27.4646ZM5.88687 20.7812H18.5402L14.8944 26.25H2.24101L5.88687 20.7812Z" fill="black"/>
<path d="M15.3125 1.95547C14.6744 1.01766 13.5727 0 11.7969 0C9.29336 0 7.5 2.01758 7.5 4.45078C7.5 7.15227 9.68633 8.92656 12.9959 11.6122C13.5758 12.0827 14.1754 12.5694 14.8124 13.1002C14.9573 13.2209 15.1348 13.2812 15.3125 13.2812C15.4902 13.2812 15.6677 13.2209 15.8126 13.1002C16.4496 12.5694 17.0492 12.0827 17.6291 11.6122C20.9387 8.92656 23.125 7.15227 23.125 4.45078C23.125 2.01562 21.3298 0 18.8281 0C17.0523 0 15.9507 1.01766 15.3125 1.95547ZM21.5625 4.45078C21.5625 6.40797 19.6061 7.9957 16.6446 10.3989C16.2142 10.7481 15.773 11.1062 15.3125 11.4855C14.852 11.1062 14.4108 10.7482 13.9804 10.3989C11.019 7.9957 9.0625 6.40805 9.0625 4.45078C9.0625 2.80422 10.238 1.5625 11.7969 1.5625C13.8365 1.5625 14.5339 3.83344 14.5618 3.92719C14.6581 4.2618 14.9643 4.49219 15.3125 4.49219C15.6607 4.49219 15.9669 4.26172 16.0632 3.92719C16.0701 3.90352 16.768 1.5625 18.8281 1.5625C20.387 1.5625 21.5625 2.80422 21.5625 4.45078Z" fill="black"/>
<path d="M29.375 15.625C29.5587 15.625 29.7423 15.5605 29.8895 15.4316C30.3139 15.0602 30.7139 14.7194 31.1006 14.3898C33.2737 12.5378 34.8438 11.1998 34.8438 9.20937C34.8438 7.33086 33.4711 5.85938 31.7188 5.85938C30.6036 5.85938 29.8559 6.42648 29.375 7.03391C28.8941 6.42648 28.1465 5.85938 27.0312 5.85938C25.2789 5.85938 23.9062 7.33086 23.9062 9.20937C23.9062 11.1998 25.4763 12.5378 27.6494 14.3898C28.0362 14.7194 28.4361 15.0602 28.8605 15.4316C29.0077 15.5605 29.1914 15.625 29.375 15.625ZM25.4688 9.20937C25.4688 8.34281 26.0163 7.42188 27.0312 7.42188C28.1828 7.42188 28.6032 8.83422 28.6226 8.90156C28.7168 9.23906 29.0238 9.47461 29.3745 9.47461C29.7263 9.47461 30.0342 9.24141 30.1273 8.90203C30.1446 8.84164 30.5641 7.42188 31.7188 7.42188C32.7337 7.42188 33.2812 8.34281 33.2812 9.20937C33.2812 10.4784 32.079 11.503 30.0872 13.2005C29.8555 13.3979 29.6191 13.5993 29.375 13.8095C29.1309 13.5993 28.8945 13.3979 28.6628 13.2005C26.671 11.503 25.4688 10.4784 25.4688 9.20937Z" fill="black"/>
<path d="M28.0469 20.7812C28.4783 20.7812 28.8281 20.4315 28.8281 20C28.8281 19.5685 28.4783 19.2188 28.0469 19.2188C27.6154 19.2188 27.2656 19.5685 27.2656 20C27.2656 20.4315 27.6154 20.7812 28.0469 20.7812Z" fill="black"/>
</svg>
