<svg width="24" height="24" viewBox="0 0 24 24" fill="none" xmlns="http://www.w3.org/2000/svg">
<path d="M19.25 24.0001H15.2502C14.8362 24.0001 14.5002 23.6641 14.5002 23.2501V16.7502C14.5002 16.6121 14.3881 16.5003 14.2501 16.5003H9.75016C9.61229 16.5003 9.50023 16.6121 9.50023 16.7502V23.2501C9.50023 23.6641 9.16424 24.0001 8.75025 24.0001H4.75039C3.78544 24.0001 3.0003 23.2151 3.0003 22.25V13.0003H1.2504C0.56139 13.0003 0.000366211 12.4392 0.000366211 11.7502C0.000366211 11.4194 0.135495 11.0953 0.370415 10.8604L11.4812 0.208599C11.7712 -0.0695329 12.2292 -0.0695329 12.5192 0.208599L23.619 10.8483C23.8649 11.0953 23.9999 11.4194 23.9999 11.7502C23.9999 12.4392 23.439 13.0003 22.75 13.0003H20.9999V22.25C20.9999 23.2151 20.215 24.0001 19.25 24.0001ZM16.0002 22.5001H19.25C19.3861 22.5001 19.5 22.3861 19.5 22.25V12.2503C19.5 11.8363 19.836 11.5003 20.2499 11.5003H22.1309L12.0001 1.7895L1.86947 11.5003H3.75029C4.16428 11.5003 4.50027 11.8363 4.50027 12.2503V22.25C4.50027 22.3861 4.61435 22.5001 4.75039 22.5001H8.00026V16.7502C8.00026 15.7852 8.78522 15.0003 9.75016 15.0003H14.2501C15.2152 15.0003 16.0002 15.7852 16.0002 16.7502V22.5001Z" fill="#9A5B6A"/>
</svg>
