<svg width="24" height="24" viewBox="0 0 24 24" fill="none" xmlns="http://www.w3.org/2000/svg">
<g clip-path="url(#clip0_1_1191)">
<path d="M15 18C11.691 18 9 15.309 9 12C9 8.691 11.691 6 15 6C18.309 6 21 8.691 21 12C21 15.309 18.309 18 15 18ZM15 7C12.243 7 10 9.243 10 12C10 14.757 12.243 17 15 17C17.757 17 20 14.757 20 12C20 9.243 17.757 7 15 7Z" fill="black"/>
<path d="M23.5002 21C23.3722 21 23.2442 20.951 23.1462 20.854L18.5302 16.238C18.3352 16.043 18.3352 15.726 18.5302 15.531C18.7252 15.336 19.0422 15.336 19.2372 15.531L23.8532 20.147C24.0482 20.342 24.0482 20.659 23.8532 20.854C23.7562 20.951 23.6282 21 23.5002 21Z" fill="black"/>
<path d="M17.5 2H0.5C0.224 2 0 1.776 0 1.5C0 1.224 0.224 1 0.5 1H17.5C17.776 1 18 1.224 18 1.5C18 1.776 17.776 2 17.5 2Z" fill="black"/>
<path d="M17.5 23H0.5C0.224 23 0 22.776 0 22.5C0 22.224 0.224 22 0.5 22H17.5C17.776 22 18 22.224 18 22.5C18 22.776 17.776 23 17.5 23Z" fill="black"/>
<path d="M8.5 7H0.5C0.224 7 0 6.776 0 6.5C0 6.224 0.224 6 0.5 6H8.5C8.776 6 9 6.224 9 6.5C9 6.776 8.776 7 8.5 7Z" fill="black"/>
<path d="M8.5 18H0.5C0.224 18 0 17.776 0 17.5C0 17.224 0.224 17 0.5 17H8.5C8.776 17 9 17.224 9 17.5C9 17.776 8.776 18 8.5 18Z" fill="black"/>
<path d="M6.5 12.5H0.5C0.224 12.5 0 12.276 0 12C0 11.724 0.224 11.5 0.5 11.5H6.5C6.776 11.5 7 11.724 7 12C7 12.276 6.776 12.5 6.5 12.5Z" fill="black"/>
</g>
<defs>
<clipPath id="clip0_1_1191">
<rect width="24" height="24" fill="white"/>
</clipPath>
</defs>
</svg>
