<svg width="24" height="24" viewBox="0 0 24 24" fill="none" xmlns="http://www.w3.org/2000/svg">
<g clip-path="url(#clip0_1_1141)">
<path d="M0.5 7C0.224 7 0 6.776 0 6.5V4.5C0 3.122 1.122 2 2.5 2H4.5C4.776 2 5 2.224 5 2.5C5 2.776 4.776 3 4.5 3H2.5C1.673 3 1 3.673 1 4.5V6.5C1 6.776 0.776 7 0.5 7Z" fill="white"/>
<path d="M23.4999 7C23.2239 7 22.9999 6.776 22.9999 6.5V4.5C22.9999 3.673 22.3269 3 21.4999 3H19.4999C19.2239 3 18.9999 2.776 18.9999 2.5C18.9999 2.224 19.2239 2 19.4999 2H21.4999C22.8779 2 23.9999 3.122 23.9999 4.5V6.5C23.9999 6.776 23.7759 7 23.4999 7Z" fill="white"/>
<path d="M4.5 22H2.5C1.122 22 0 20.878 0 19.5V17.5C0 17.224 0.224 17 0.5 17C0.776 17 1 17.224 1 17.5V19.5C1 20.327 1.673 21 2.5 21H4.5C4.776 21 5 21.224 5 21.5C5 21.776 4.776 22 4.5 22Z" fill="white"/>
<path d="M21.4999 22H19.4999C19.2239 22 18.9999 21.776 18.9999 21.5C18.9999 21.224 19.2239 21 19.4999 21H21.4999C22.3269 21 22.9999 20.327 22.9999 19.5V17.5C22.9999 17.224 23.2239 17 23.4999 17C23.7759 17 23.9999 17.224 23.9999 17.5V19.5C23.9999 20.878 22.8779 22 21.4999 22Z" fill="white"/>
<path d="M12.0001 16C9.79412 16 8.00012 14.206 8.00012 12C8.00012 9.794 9.79412 8 12.0001 8C14.2061 8 16.0001 9.794 16.0001 12C16.0001 14.206 14.2061 16 12.0001 16ZM12.0001 9C10.3461 9 9.00012 10.346 9.00012 12C9.00012 13.654 10.3461 15 12.0001 15C13.6541 15 15.0001 13.654 15.0001 12C15.0001 10.346 13.6541 9 12.0001 9Z" fill="white"/>
</g>
<defs>
<clipPath id="clip0_1_1141">
<rect width="24" height="24" fill="white"/>
</clipPath>
</defs>
</svg>
