<svg width="16" height="16" viewBox="0 0 16 16" fill="none" xmlns="http://www.w3.org/2000/svg">
<path d="M8 15.3229C7.69336 15.3229 7.40137 15.2015 7.18933 14.9883C6.59668 14.5336 0 9.38159 0 5.06091C0 2.6322 1.97998 0.65625 4.41333 0.65625C5.85596 0.65625 7.18396 1.35425 8 2.49158C8.81604 1.35425 10.144 0.65625 11.5867 0.65625C14.02 0.65625 16 2.6322 16 5.06091C16 9.38159 9.40332 14.5336 8.81067 14.9883C8.59863 15.2015 8.30664 15.3229 8 15.3229ZM4.41333 1.65625C2.53137 1.65625 1 3.18359 1 5.06091C1 8.99695 7.75806 14.1643 7.82605 14.2163C7.85132 14.2349 7.87463 14.257 7.89539 14.2803C7.94531 14.3369 8.05334 14.3369 8.10339 14.2803C8.12463 14.257 8.14795 14.2356 8.17261 14.2163C8.24194 14.1643 15 8.99353 15 5.06091C15 3.18359 13.4686 1.65625 11.5867 1.65625C10.2253 1.65625 8.99805 2.45825 8.45862 3.69824C8.30005 4.06287 7.69995 4.06287 7.54138 3.69824C7.00195 2.45825 5.77405 1.65625 4.41333 1.65625Z" fill="#9A5B6A"/>
</svg>
