<svg width="15" height="15" viewBox="0 0 15 15" fill="none" xmlns="http://www.w3.org/2000/svg">
<g clip-path="url(#clip0_1_1016)">
<path d="M12.375 15H2.62497C2.31872 15 2.02747 14.8681 1.82622 14.6375C1.62434 14.4069 1.53122 14.1012 1.57184 13.7975L2.87184 4.0475C2.94184 3.52125 3.39497 3.125 3.92497 3.125H11.075C11.6056 3.125 12.0581 3.52125 12.1287 4.0475L13.4287 13.7975C13.4687 14.1012 13.3762 14.4075 13.1743 14.6375C12.9725 14.8681 12.6812 15 12.375 15ZM3.92497 3.75C3.70622 3.75 3.52059 3.91312 3.49184 4.12937L2.19184 13.8794C2.17497 14.0063 2.21184 14.1287 2.29622 14.2256C2.38059 14.3219 2.49684 14.375 2.62497 14.375H12.375C12.5031 14.375 12.62 14.3219 12.7037 14.2256C12.7881 14.1294 12.825 14.0063 12.8081 13.8794L11.5081 4.12937C11.4793 3.91312 11.2931 3.75 11.075 3.75H3.92497Z" fill="black"/>
<path d="M9.0625 5C8.89 5 8.75 4.86 8.75 4.6875V1.875C8.75 1.18562 8.18937 0.625 7.5 0.625C6.81062 0.625 6.25 1.18562 6.25 1.875V4.6875C6.25 4.86 6.11 5 5.9375 5C5.765 5 5.625 4.86 5.625 4.6875V1.875C5.625 0.84125 6.46625 0 7.5 0C8.53375 0 9.375 0.84125 9.375 1.875V4.6875C9.375 4.86 9.235 5 9.0625 5Z" fill="black"/>
</g>
<defs>
<clipPath id="clip0_1_1016">
<rect width="15" height="15" fill="white"/>
</clipPath>
</defs>
</svg>
