<svg width="24" height="24" viewBox="0 0 24 24" fill="none" xmlns="http://www.w3.org/2000/svg">
<g clip-path="url(#clip0_1_1129)">
<path d="M22.4998 10.5001C22.2238 10.5001 21.9998 10.2761 21.9998 10.0001C21.9998 7.06215 20.8558 4.29915 18.7778 2.22215C18.5828 2.02715 18.5828 1.71015 18.7778 1.51515C18.9728 1.32015 19.2898 1.32015 19.4848 1.51515C21.7518 3.78115 22.9998 6.79415 22.9998 10.0001C22.9998 10.2761 22.7758 10.5001 22.4998 10.5001Z" fill="white"/>
<path d="M1.49988 10.5001C1.22388 10.5001 0.999878 10.2761 0.999878 10.0001C0.999878 6.79415 2.24788 3.78115 4.51488 1.51515C4.70988 1.32015 5.02688 1.32015 5.22188 1.51515C5.41688 1.71015 5.41688 2.02715 5.22188 2.22215C3.14388 4.29915 1.99988 7.06215 1.99988 10.0001C1.99988 10.2761 1.77588 10.5001 1.49988 10.5001Z" fill="white"/>
<path d="M13.4999 4.18C13.2239 4.18 12.9999 3.956 12.9999 3.68V2C12.9999 1.449 12.5509 1 11.9999 1C11.4489 1 10.9999 1.449 10.9999 2V3.68C10.9999 3.956 10.7759 4.18 10.4999 4.18C10.2239 4.18 9.99988 3.957 9.99988 3.68V2C9.99988 0.897 10.8969 0 11.9999 0C13.1029 0 13.9999 0.897 13.9999 2V3.68C13.9999 3.957 13.7759 4.18 13.4999 4.18Z" fill="white"/>
<path d="M11.9999 24C10.0699 24 8.49988 22.43 8.49988 20.5C8.49988 20.224 8.72388 20 8.99988 20C9.27588 20 9.49988 20.224 9.49988 20.5C9.49988 21.878 10.6219 23 11.9999 23C13.3779 23 14.4999 21.878 14.4999 20.5C14.4999 20.224 14.7239 20 14.9999 20C15.2759 20 15.4999 20.224 15.4999 20.5C15.4999 22.43 13.9299 24 11.9999 24Z" fill="white"/>
<path d="M20.5001 21H3.50012C2.67312 21 2.00012 20.327 2.00012 19.5C2.00012 19.061 2.19112 18.646 2.52512 18.36C4.10112 17.028 5.00012 15.09 5.00012 13.038V10C5.00012 6.14 8.14012 3 12.0001 3C15.8601 3 19.0001 6.14 19.0001 10V13.038C19.0001 15.091 19.8991 17.028 21.4671 18.353C21.8091 18.646 22.0001 19.061 22.0001 19.5C22.0001 20.327 21.3281 21 20.5001 21ZM12.0001 4C8.69112 4 6.00012 6.691 6.00012 10V13.038C6.00012 15.386 4.97212 17.601 3.17912 19.117C3.06412 19.215 3.00012 19.354 3.00012 19.5C3.00012 19.776 3.22412 20 3.50012 20H20.5001C20.7761 20 21.0001 19.776 21.0001 19.5C21.0001 19.354 20.9361 19.215 20.8251 19.12C19.0291 17.601 18.0001 15.385 18.0001 13.038V10C18.0001 6.691 15.3091 4 12.0001 4Z" fill="white"/>
</g>
<defs>
<clipPath id="clip0_1_1129">
<rect width="24" height="24" fill="white"/>
</clipPath>
</defs>
</svg>
