<svg width="24" height="24" viewBox="0 0 24 24" fill="none" xmlns="http://www.w3.org/2000/svg">
<g clip-path="url(#clip0_1_777)">
<path d="M23.1001 12.8998H0.9C0.403198 12.8998 0 12.4966 0 11.9998C0 11.503 0.403198 11.0999 0.9 11.0999H23.1001C23.5969 11.0999 24.0001 11.503 24.0001 11.9998C24.0001 12.4966 23.5969 12.8998 23.1001 12.8998Z" fill="#26180F"/>
<path d="M11.9999 24.0001C11.5031 24.0001 11.0999 23.5969 11.0999 23.1001V0.9C11.0999 0.403198 11.5031 0 11.9999 0C12.4967 0 12.8999 0.403198 12.8999 0.9V23.1001C12.8999 23.5969 12.4967 24.0001 11.9999 24.0001Z" fill="#26180F"/>
</g>
<defs>
<clipPath id="clip0_1_777">
<rect width="24" height="24" fill="white"/>
</clipPath>
</defs>
</svg>
