<svg width="24" height="24" viewBox="0 0 24 24" fill="none" xmlns="http://www.w3.org/2000/svg">
<g clip-path="url(#clip0_1_931)">
<path d="M9.49976 19.0001C4.26182 19.0001 -7.62939e-06 14.7382 -7.62939e-06 9.5005C-7.62939e-06 4.26256 4.26182 0.000732422 9.49976 0.000732422C14.7375 0.000732422 18.9993 4.26256 18.9993 9.5005C18.9993 14.7382 14.7375 19.0001 9.49976 19.0001ZM9.49976 1.50069C5.08888 1.50069 1.49995 5.08962 1.49995 9.5005C1.49995 13.9114 5.08888 17.5001 9.49976 17.5001C13.9106 17.5001 17.4994 13.9114 17.4994 9.5005C17.4994 5.08962 13.9106 1.50069 9.49976 1.50069Z" fill="white"/>
<path d="M23.2493 24C23.0573 24 22.8654 23.9269 22.7193 23.7801L15.1596 16.2202C14.8667 15.9273 14.8667 15.4523 15.1596 15.1592C15.4526 14.8662 15.9275 14.8662 16.2205 15.1592L23.7803 22.719C24.0733 23.012 24.0733 23.4869 23.7803 23.7801C23.6333 23.9269 23.4414 24 23.2493 24Z" fill="white"/>
</g>
<defs>
<clipPath id="clip0_1_931">
<rect width="24" height="24" fill="white"/>
</clipPath>
</defs>
</svg>
