<svg width="24" height="24" viewBox="0 0 24 24" fill="none" xmlns="http://www.w3.org/2000/svg">
<path d="M12 12.031C5.67534 12.031 0.529663 17.1767 0.529663 23.5014C0.529663 23.7766 0.753101 24.0001 1.02839 24.0001C1.30368 24.0001 1.52712 23.7766 1.52712 23.5014C1.52712 17.7263 6.22498 13.0284 12.0001 13.0284C17.7751 13.0284 22.473 17.7263 22.473 23.5014C22.473 23.7766 22.6964 24.0001 22.9717 24.0001C23.247 24.0001 23.4704 23.7766 23.4704 23.5014C23.4704 17.1757 18.3247 12.031 12 12.031Z" fill="white"/>
<path d="M12 0C8.97583 0 6.51422 2.46063 6.51422 5.48581C6.51422 8.51099 8.97588 10.9716 12 10.9716C15.0242 10.9716 17.4858 8.51099 17.4858 5.48581C17.4858 2.46063 15.0242 0 12 0ZM12 9.97421C9.52542 9.97421 7.51163 7.96041 7.51163 5.48581C7.51163 3.0112 9.52542 0.997407 12 0.997407C14.4746 0.997407 16.4884 3.0112 16.4884 5.48581C16.4884 7.96041 14.4746 9.97421 12 9.97421Z" fill="white"/>
</svg>
