<svg width="50" height="50" viewBox="0 0 50 50" fill="none" xmlns="http://www.w3.org/2000/svg">
<path d="M25 0C11.2156 0 0 11.2156 0 25C0 29.8062 1.34688 34.4219 3.9 38.4L0.1125 47.8563C-0.11875 48.4375 0.015625 49.1 0.459375 49.5438C0.75625 49.8406 1.15625 50 1.5625 50C1.75937 50 1.95312 49.9625 2.14375 49.8875L11.6 46.1C15.5781 48.6531 20.1938 50 25 50C38.7844 50 50 38.7844 50 25C50 11.2156 38.7844 0 25 0ZM25 46.875C20.5438 46.875 16.2781 45.5563 12.6687 43.0594C12.4062 42.875 12.0938 42.7812 11.7812 42.7812C11.5844 42.7812 11.3875 42.8187 11.2 42.8937L4.36875 45.6313L7.10625 38.8C7.3 38.3125 7.2375 37.7594 6.94062 37.3312C4.44375 33.7219 3.125 29.4562 3.125 25C3.125 12.9375 12.9375 3.125 25 3.125C37.0625 3.125 46.875 12.9375 46.875 25C46.875 37.0625 37.0625 46.875 25 46.875Z" fill="white"/>
</svg>
