<svg width="24" height="23" viewBox="0 0 24 23" fill="none" xmlns="http://www.w3.org/2000/svg">
<path d="M12 22.9843C11.54 22.9843 11.1021 22.8023 10.784 22.4824C9.89502 21.8004 0 14.0724 0 7.59137C0 3.9483 2.96997 0.984375 6.62 0.984375C8.78394 0.984375 10.7759 2.03137 12 3.73737C13.2241 2.03137 15.2161 0.984375 17.38 0.984375C21.03 0.984375 24 3.9483 24 7.59137C24 14.0724 14.105 21.8004 13.216 22.4824C12.8979 22.8023 12.46 22.9843 12 22.9843ZM6.62 2.48438C3.79706 2.48438 1.5 4.77539 1.5 7.59137C1.5 13.4954 11.6371 21.2465 11.7391 21.3245C11.777 21.3523 11.812 21.3854 11.8431 21.4204C11.918 21.5054 12.08 21.5054 12.1551 21.4204C12.187 21.3854 12.2219 21.3534 12.2589 21.3245C12.3629 21.2465 22.5 13.4903 22.5 7.59137C22.5 4.77539 20.2029 2.48438 17.38 2.48438C15.338 2.48438 13.4971 3.68738 12.6879 5.54736C12.4501 6.0943 11.5499 6.0943 11.3121 5.54736C10.5029 3.68738 8.66107 2.48438 6.62 2.48438Z" fill="white"/>
</svg>
