<svg width="28" height="36" viewBox="0 0 28 36" fill="none" xmlns="http://www.w3.org/2000/svg">
<path d="M14.8437 0C5.01879 0 0.0650635 7.04358 0.0650635 12.9176C0.0650635 16.4741 1.41149 19.6376 4.29895 20.8171C4.77294 21.0106 5.19755 20.8241 5.3354 20.2999C5.43049 19.9369 5.65643 19.0217 5.75705 18.6402C5.89564 18.1216 5.84146 17.9399 5.45961 17.488C4.62699 16.5058 4.09475 15.2342 4.09475 13.4329C4.09475 8.20718 8.00466 3.52916 14.2764 3.52916C19.8287 3.52916 22.8798 6.92231 22.8798 11.4536C22.8798 17.4158 20.2412 22.4477 16.3243 22.4477C14.1607 22.4477 12.5419 20.6586 13.0608 18.4644C13.6823 15.8449 14.8857 13.0175 14.8857 11.1271C14.8857 9.43456 13.9779 8.02252 12.0974 8.02252C9.88589 8.02252 8.1097 10.3103 8.1097 13.3747C8.1097 15.3267 8.76909 16.6469 8.76909 16.6469C8.76909 16.6469 6.50564 26.2356 6.10979 27.9148C5.31918 31.2586 5.9911 35.3583 6.04786 35.7722C6.08067 36.0177 6.3958 36.0759 6.53881 35.8909C6.74337 35.6244 9.37688 32.3732 10.2722 29.1241C10.5254 28.2042 11.7258 23.4406 11.7258 23.4406C12.4446 24.8106 14.5444 26.0177 16.7776 26.0177C23.4246 26.0177 27.9349 19.9579 27.9349 11.8458C27.9353 5.71226 22.7394 0 14.8437 0Z" fill="white"/>
</svg>
