<svg width="35" height="33" viewBox="0 0 35 33" fill="none" xmlns="http://www.w3.org/2000/svg">
<path d="M17.5 32.5188C16.8292 32.5188 16.1905 32.2534 15.7267 31.7869C14.4302 30.7922 0 19.5222 0 10.0707C0 4.75794 4.33121 0.435547 9.65416 0.435547C12.8099 0.435547 15.7149 1.96242 17.5 4.45033C19.2851 1.96242 22.1901 0.435547 25.3458 0.435547C30.6688 0.435547 35 4.75794 35 10.0707C35 19.5222 20.5698 30.7922 19.2733 31.7869C18.8095 32.2534 18.1708 32.5188 17.5 32.5188ZM9.65416 2.62305C5.53738 2.62305 2.1875 5.96411 2.1875 10.0707C2.1875 18.6808 16.9707 29.9844 17.1195 30.0982C17.1748 30.1388 17.2258 30.1871 17.2712 30.2381C17.3804 30.362 17.6167 30.362 17.7262 30.2381C17.7726 30.1871 17.8236 30.1404 17.8776 30.0982C18.0293 29.9844 32.8125 18.6733 32.8125 10.0707C32.8125 5.96411 29.4626 2.62305 25.3458 2.62305C22.3679 2.62305 19.6832 4.37743 18.5032 7.0899C18.1564 7.88752 16.8436 7.88752 16.4968 7.0899C15.3168 4.37743 12.6307 2.62305 9.65416 2.62305Z" fill="#9A5B6A"/>
</svg>
