<svg width="36" height="36" viewBox="0 0 36 36" fill="none" xmlns="http://www.w3.org/2000/svg">
<path d="M25.4219 0.114301C22.1099 -0.0401993 13.9064 -0.0326993 10.5914 0.114301C7.67835 0.250801 5.10885 0.9543 3.03735 3.0258C-0.424647 6.4878 0.0178526 11.1528 0.0178526 17.9943C0.0178526 24.9963 -0.372147 29.5533 3.03735 32.9628C6.51285 36.4368 11.2454 35.9823 18.0059 35.9823C24.9419 35.9823 27.3359 35.9868 29.7884 35.0373C33.1229 33.7428 35.6399 30.7623 35.8859 25.4088C36.0419 22.0953 36.0329 13.8933 35.8859 10.5783C35.5889 4.2588 32.1974 0.426301 25.4219 0.114301ZM30.6644 30.6723C28.3949 32.9418 25.2464 32.7393 17.9624 32.7393C10.4624 32.7393 7.45485 32.8503 5.26035 30.6498C2.73285 28.1343 3.19035 24.0948 3.19035 17.9703C3.19035 9.6828 2.33985 3.7143 10.6574 3.2883C12.5684 3.2208 13.1309 3.1983 17.9414 3.1983L18.0089 3.2433C26.0024 3.2433 32.2739 2.4063 32.6504 10.7223C32.7359 12.6198 32.7554 13.1898 32.7554 17.9928C32.7539 25.4058 32.8949 28.4313 30.6644 30.6723Z" fill="white"/>
</svg>
